<svg width="199" height="13" viewBox="0 0 199 13" fill="none" xmlns="http://www.w3.org/2000/svg">
<path d="M2.68217 12.1133C1.89473 12.1133 1.28228 11.8781 0.844814 11.4079C0.407348 10.9266 0.188615 10.2595 0.188615 9.40645V2.99211C0.188615 2.14999 0.407348 1.49379 0.844814 1.02352C1.28228 0.542304 1.89473 0.301697 2.68217 0.301697C3.49148 0.301697 4.11487 0.536835 4.55233 1.00711C4.9898 1.47739 5.20853 2.13905 5.20853 2.99211V4.17327H4.24064V2.9429C4.24064 2.39606 4.09846 1.975 3.81411 1.67971C3.5407 1.37349 3.16885 1.22038 2.69857 1.22038C2.2283 1.22038 1.86192 1.37349 1.59944 1.67971C1.33696 1.975 1.20572 2.39606 1.20572 2.9429V9.47207C1.20572 10.0189 1.33696 10.44 1.59944 10.7353C1.86192 11.0305 2.2283 11.1782 2.69857 11.1782C3.19072 11.1782 3.56804 11.0305 3.83052 10.7353C4.10393 10.44 4.24064 10.0189 4.24064 9.47207V7.9136H5.20853V9.40645C5.20853 10.2595 4.9898 10.9266 4.55233 11.4079C4.11487 11.8781 3.49148 12.1133 2.68217 12.1133ZM13.3259 11.9492H8.88017V0.465747H9.89727V11.0141H13.3259V11.9492ZM17.7851 11.9492H16.768V0.465747H17.7851V11.9492ZM22.6912 11.9492H21.7561V0.465747H23.1013L26.087 9.34083V0.465747H27.0385V11.9492H25.9558L22.6912 2.15546V11.9492ZM32.0068 11.9492H30.9897V0.465747H32.0068V11.9492ZM38.3565 12.1133C37.5691 12.1133 36.9567 11.8781 36.5192 11.4079C36.0817 10.9266 35.863 10.2595 35.863 9.40645V2.99211C35.863 2.14999 36.0817 1.49379 36.5192 1.02352C36.9567 0.542304 37.5691 0.301697 38.3565 0.301697C39.1659 0.301697 39.7892 0.536835 40.2267 1.00711C40.6642 1.47739 40.8829 2.13905 40.8829 2.99211V4.17327H39.915V2.9429C39.915 2.39606 39.7728 1.975 39.4885 1.67971C39.2151 1.37349 38.8432 1.22038 38.373 1.22038C37.9027 1.22038 37.5363 1.37349 37.2738 1.67971C37.0113 1.975 36.8801 2.39606 36.8801 2.9429V9.47207C36.8801 10.0189 37.0113 10.44 37.2738 10.7353C37.5363 11.0305 37.9027 11.1782 38.373 11.1782C38.8651 11.1782 39.2424 11.0305 39.5049 10.7353C39.7783 10.44 39.915 10.0189 39.915 9.47207V7.9136H40.8829V9.40645C40.8829 10.2595 40.6642 10.9266 40.2267 11.4079C39.7892 11.8781 39.1659 12.1133 38.3565 12.1133ZM57.1876 11.9492H54.5628V0.465747H57.04C57.9368 0.465747 58.5821 0.673543 58.9758 1.08914C59.3804 1.50473 59.5828 2.16639 59.5828 3.07414V3.54988C59.5828 4.77478 59.1453 5.54582 58.2704 5.86298V5.89579C59.2656 6.1692 59.7632 6.97852 59.7632 8.32372V9.29162C59.7632 11.0634 58.9047 11.9492 57.1876 11.9492ZM55.58 1.38442V5.50207H56.8431C57.4337 5.50207 57.8657 5.36536 58.1391 5.09195C58.4235 4.80759 58.5657 4.35919 58.5657 3.74674V3.15616C58.5657 2.53277 58.4454 2.08437 58.2048 1.81095C57.9641 1.5266 57.565 1.38442 57.0072 1.38442H55.58ZM55.58 6.42075V11.0141H57.1876C57.7345 11.0141 58.1282 10.8774 58.3688 10.604C58.6203 10.3306 58.7461 9.88766 58.7461 9.27521V8.29091C58.7461 7.61284 58.6039 7.13163 58.3196 6.84728C58.0462 6.56292 57.5704 6.42075 56.8924 6.42075H55.58ZM66.0421 11.9492H65.025V6.83087L62.6463 0.465747H63.729L65.5663 5.50207L67.4201 0.465747H68.4208L66.0421 6.83087V11.9492ZM84.4119 11.9492H81.8528V0.465747H84.4119C85.2869 0.465747 85.9321 0.695416 86.3477 1.15476C86.7633 1.60316 86.9711 2.29217 86.9711 3.22178V9.17678C86.9711 10.1173 86.7633 10.8173 86.3477 11.2766C85.9321 11.725 85.2869 11.9492 84.4119 11.9492ZM82.8699 1.38442V11.0141H84.3955C84.9424 11.0141 85.3361 10.8774 85.5767 10.604C85.8282 10.3197 85.954 9.86032 85.954 9.226V3.18897C85.954 2.54371 85.8282 2.08437 85.5767 1.81095C85.3251 1.5266 84.9314 1.38442 84.3955 1.38442H82.8699ZM96.1311 11.9492H95.0976L94.6054 9.40645H91.6689L91.1932 11.9492H90.2253L92.4728 0.465747H93.8508L96.1311 11.9492ZM93.129 1.71252L91.8494 8.50418H94.4414L93.129 1.71252ZM100.616 11.9492H99.599V0.465747H102.043C102.929 0.465747 103.574 0.673543 103.979 1.08914C104.384 1.50473 104.586 2.16639 104.586 3.07414V3.77955C104.586 5.08101 104.121 5.85204 103.192 6.09265V6.12546C104.121 6.32232 104.586 7.10976 104.586 8.48777V10.5712C104.586 11.1727 104.641 11.6321 104.75 11.9492H103.717C103.618 11.5555 103.569 11.0907 103.569 10.5548V8.43856C103.569 7.78236 103.438 7.32302 103.175 7.06054C102.924 6.78712 102.486 6.65042 101.863 6.65042H100.616V11.9492ZM100.616 1.38442V5.69893H101.846C102.437 5.69893 102.869 5.56222 103.142 5.28881C103.427 5.01539 103.569 4.57246 103.569 3.96V3.15616C103.569 2.53277 103.449 2.08437 103.208 1.81095C102.967 1.5266 102.568 1.38442 102.01 1.38442H100.616ZM109.465 11.9492H108.448V0.465747H109.465V11.9492ZM118.833 11.9492H117.8L117.308 9.40645H114.371L113.895 11.9492H112.928L115.175 0.465747H116.553L118.833 11.9492ZM115.831 1.71252L114.552 8.50418H117.144L115.831 1.71252ZM132.178 9.30802V3.10695C132.178 2.1992 132.397 1.50473 132.834 1.02352C133.283 0.542304 133.923 0.301697 134.754 0.301697C135.585 0.301697 136.219 0.542304 136.657 1.02352C137.105 1.50473 137.329 2.1992 137.329 3.10695V9.30802C137.329 10.2158 137.105 10.9102 136.657 11.3915C136.219 11.8727 135.585 12.1133 134.754 12.1133C133.923 12.1133 133.283 11.8727 132.834 11.3915C132.397 10.9102 132.178 10.2158 132.178 9.30802ZM136.312 9.37364V3.04133C136.312 1.82736 135.793 1.22038 134.754 1.22038C133.715 1.22038 133.195 1.82736 133.195 3.04133V9.37364C133.195 10.5767 133.715 11.1782 134.754 11.1782C135.793 11.1782 136.312 10.5767 136.312 9.37364ZM146.67 11.9492H145.588L143.471 5.9286L142.192 8.09405V11.9492H141.175V0.465747H142.192V6.45356L145.571 0.465747H146.637L144.144 4.81306L146.67 11.9492ZM152.173 12.1133C151.364 12.1133 150.74 11.8781 150.303 11.4079C149.876 10.9266 149.663 10.254 149.663 9.39005V8.75025H150.631V9.45566C150.631 10.0134 150.762 10.44 151.025 10.7353C151.298 11.0305 151.681 11.1782 152.173 11.1782C152.665 11.1782 153.043 11.0305 153.305 10.7353C153.578 10.429 153.715 9.99703 153.715 9.43926C153.715 8.88149 153.578 8.39481 153.305 7.97922C153.032 7.56363 152.54 7.06601 151.829 6.48637C151.019 5.84111 150.456 5.26146 150.139 4.74744C149.822 4.21155 149.663 3.62097 149.663 2.97571C149.663 2.13358 149.882 1.47739 150.319 1.00711C150.768 0.536835 151.391 0.301697 152.19 0.301697C152.977 0.301697 153.584 0.542304 154.01 1.02352C154.448 1.49379 154.667 2.16093 154.667 3.02492V3.48426H153.699V2.9593C153.699 2.3906 153.568 1.9586 153.305 1.66331C153.043 1.36802 152.671 1.22038 152.19 1.22038C151.719 1.22038 151.347 1.36802 151.074 1.66331C150.812 1.9586 150.68 2.37419 150.68 2.91009C150.68 3.42411 150.817 3.88345 151.09 4.2881C151.375 4.71463 151.878 5.21225 152.6 5.78095C153.398 6.43715 153.956 7.02773 154.273 7.55269C154.579 8.05577 154.732 8.66276 154.732 9.37364C154.732 10.2486 154.508 10.9266 154.06 11.4079C153.622 11.8781 152.993 12.1133 152.173 12.1133ZM162.937 11.9492H158.344V0.465747H162.937V1.38442H159.361V5.50207H162.298V6.42075H159.361V11.0141H162.937V11.9492ZM167.375 11.9492H166.44V0.465747H167.785L170.771 9.34083V0.465747H171.723V11.9492H170.64L167.375 2.15546V11.9492ZM178.266 11.9492H177.249V1.38442H175.149V0.465747H180.382V1.38442H178.266V11.9492ZM183.768 9.30802V0.465747H184.785V9.37364C184.785 10.5767 185.299 11.1782 186.327 11.1782C187.356 11.1782 187.87 10.5767 187.87 9.37364V0.465747H188.854V9.30802C188.854 10.2158 188.635 10.9102 188.198 11.3915C187.771 11.8727 187.142 12.1133 186.311 12.1133C185.48 12.1133 184.846 11.8727 184.408 11.3915C183.982 10.9102 183.768 10.2158 183.768 9.30802ZM198.259 11.9492H197.176L195.06 5.9286L193.78 8.09405V11.9492H192.763V0.465747H193.78V6.45356L197.16 0.465747H198.226L195.732 4.81306L198.259 11.9492Z" fill="#323131"/>
</svg>
