<svg width="216" height="72" viewBox="0 0 216 72" fill="none" xmlns="http://www.w3.org/2000/svg">
<path d="M172.36 43.6038L172.372 43.3395V43.3275C172.384 43.1473 172.396 43.1233 172.432 43.2675C172.48 43.4717 173.189 43.4837 197.405 43.5437L172.36 43.6038Z" fill="#DAC7BD"/>
<path d="M190.679 42.608C188.493 42.632 184.877 42.632 182.631 42.608C180.385 42.596 182.175 42.584 186.595 42.584C191.015 42.584 192.865 42.596 190.679 42.608Z" fill="#DAC7BD"/>
<path d="M114.402 42.4872C114.138 42.5112 113.658 42.5112 113.321 42.4872C112.985 42.4632 113.201 42.4512 113.802 42.4512C114.402 42.4512 114.667 42.4632 114.402 42.4872Z" fill="#DAC7BD"/>
<path d="M83.2913 42.6062C78.9309 42.6303 75.3273 42.5942 75.2793 42.5462C75.2312 42.4981 78.7988 42.4861 91.2192 42.5822L83.2913 42.6062Z" fill="#DAC7BD"/>
<path d="M93.922 42.5226C93.922 41.7058 93.8859 41.5496 93.7178 41.5136C93.5656 41.4736 93.5736 41.4616 93.7418 41.4776C93.958 41.5016 93.982 41.5977 93.982 43.5436H69.0571L93.922 43.4836V42.5226Z" fill="#DAC7BD"/>
<path d="M190.499 24.023L184.289 23.9869L178.066 23.9629H190.559L190.619 24.9839L178.066 24.9239L190.499 24.8638V24.023Z" fill="#DAC7BD"/>
<path d="M74.7872 32.1303C74.7752 36.0222 74.7632 32.815 74.7632 24.9832C74.7632 17.1514 74.7752 13.9682 74.7872 17.8961C74.8112 21.824 74.8112 28.2385 74.7872 32.1303Z" fill="#DAC7BD"/>
<path d="M70.2232 32.914C70.2112 37.0461 70.1992 33.7188 70.1992 25.5266C70.1992 17.3344 70.2112 13.959 70.2232 18.0191C70.2473 22.0792 70.2473 28.7819 70.2232 32.914Z" fill="#DAC7BD"/>
<path d="M104.697 25.9464C104.685 28.8172 104.673 26.4389 104.673 20.6611C104.673 14.8833 104.685 12.529 104.697 15.4359C104.721 18.3428 104.721 23.0755 104.697 25.9464Z" fill="#DAC7BD"/>
<path d="M173.526 32.8527C173.514 37.0809 173.502 33.6815 173.502 25.2852C173.502 16.9008 173.514 13.4293 173.526 17.5975C173.55 21.7656 173.55 28.6245 173.526 32.8527Z" fill="#DAC7BD"/>
<path fill-rule="evenodd" clip-rule="evenodd" d="M41.0509 21.7358L41.0492 21.7404L40.6607 22.7606C36.7327 33.0669 34.6787 38.3041 34.1021 39.4572C33.6457 40.3822 32.985 41.5113 32.6367 41.9798C32.2763 42.4482 31.8319 42.9047 31.6156 43.0008C31.3994 43.0969 31.2192 43.2771 31.2192 43.3972C31.2192 43.5894 31.3994 43.6014 33.3213 43.6014C35.1111 43.6014 35.4234 43.5774 35.4234 43.4212C35.4234 43.3251 35.3394 43.1449 35.2312 43.0248C35.0631 42.8566 35.0391 42.6404 35.0991 41.6795C35.1472 41.0068 35.3153 39.9978 35.5315 39.217C35.7237 38.4843 36.0961 37.3551 36.3484 36.6945L36.8168 35.4933C51.5555 35.4332 53.1652 35.4572 53.2733 35.5774C53.3453 35.6615 53.6216 36.3221 53.8979 37.0548C54.1622 37.7876 54.5345 38.9167 54.7027 39.5774C54.8829 40.238 55.051 41.235 55.0871 41.7996C55.1471 42.6404 55.1231 42.8566 54.9549 43.0248C54.8468 43.1449 54.7628 43.3251 54.7628 43.4212C54.7628 43.5774 55.2913 43.6014 58.7868 43.6014C62.5345 43.6014 62.8108 43.5894 62.8108 43.3852C62.8108 43.2771 62.6306 43.0969 62.4144 43.0008C62.1982 42.9047 61.7537 42.4602 61.4054 41.9798C61.057 41.5113 60.4444 40.4903 60.048 39.6975C59.5916 38.7846 57.1772 32.5984 53.4054 22.7005L47.4835 7.14497C46.6787 7.0729 46.6066 7.10893 46.4985 7.40923C46.4409 7.58191 44.0224 13.9329 41.0509 21.7358ZM44.4966 15.331C43.8241 17.0938 42.5297 20.4864 41.0691 24.3206C38.967 29.8701 37.2493 34.4227 37.2613 34.4347C37.2733 34.4467 40.7568 34.4707 44.997 34.4707C49.2373 34.4707 52.7327 34.4467 52.7688 34.4107C52.8168 34.3746 51.0871 29.738 48.949 24.1044C46.7988 18.4828 45.021 13.9542 44.985 14.0503C44.9739 14.08 44.7975 14.5424 44.4966 15.331Z" fill="#DAC7BD"/>
<path d="M172.673 7.44728C172.565 7.35118 172.469 7.19502 172.481 7.12295V7.11094C172.481 7.00283 175.052 6.9668 197.346 6.9668V7.98782C197.346 8.58842 197.298 9.00884 197.226 9.00884C197.166 9.00884 196.961 8.85268 196.769 8.66049C196.529 8.42025 196.217 8.2761 195.58 8.11995C194.811 7.95178 193.706 7.92776 178.607 7.92776L178.487 8.31214C178.427 8.52836 178.319 9.05688 178.247 9.48932C178.175 9.95778 178.127 13.0329 178.127 24.0238H190.499V24.8647H178.127V32.5764C178.127 37.2731 178.175 40.6124 178.247 41.0809C178.319 41.5133 178.427 42.0418 178.607 42.6424H186.475C192.661 42.6424 194.535 42.6064 195.208 42.4743C195.688 42.3902 196.241 42.234 196.445 42.1379C196.649 42.0298 196.841 41.8617 196.889 41.7535C196.949 41.6454 197.07 41.5614 197.166 41.5614C197.31 41.5614 197.346 41.7535 197.346 43.4833H184.913C176.709 43.4833 172.481 43.4472 172.481 43.3632C172.481 43.2911 172.613 43.1109 172.781 42.9427C172.949 42.7746 173.142 42.4142 173.214 42.1259C173.286 41.8496 173.394 41.2971 173.454 40.9007C173.514 40.5043 173.562 33.4893 173.562 25.3091C173.562 15.3392 173.514 10.138 173.43 9.52535C173.358 9.00884 173.214 8.3722 173.094 8.10794C172.973 7.84367 172.793 7.54337 172.673 7.44728Z" fill="#9D9D9D"/>
<path d="M136.48 7.3752C136.324 7.35118 136.204 7.24307 136.204 7.14698C136.204 6.99082 136.733 6.9668 140.288 6.9668C143.844 6.9668 144.372 6.99082 144.372 7.14698C144.372 7.24307 144.312 7.32716 144.252 7.32716C144.192 7.32716 144.132 7.4713 144.132 7.65148C144.132 7.84367 144.24 8.3722 144.384 8.82866C144.528 9.28511 144.889 10.186 145.177 10.8106C145.465 11.4353 146.955 14.1259 148.492 16.7806C150.03 19.4473 151.303 21.6214 151.339 21.6214C151.375 21.6334 152.673 19.4232 154.234 16.7326C155.796 14.0419 157.297 11.3992 157.561 10.8707C157.814 10.3422 158.174 9.51334 158.354 9.04487C158.522 8.56439 158.667 7.9758 158.667 7.74758C158.667 7.51935 158.606 7.30313 158.546 7.2671C158.486 7.23106 158.426 7.14698 158.426 7.08692C158.426 7.01484 159.171 6.9668 160.408 6.9668C162.09 6.9668 162.39 6.99082 162.39 7.14698C162.39 7.24307 162.318 7.32716 162.246 7.32716C162.162 7.32716 161.874 7.4713 161.609 7.66349C161.345 7.84367 160.745 8.45628 160.276 9.02085C159.808 9.5734 159.063 10.5464 158.631 11.171C158.198 11.7956 156.516 14.5944 154.895 17.3812C153.273 20.18 151.94 22.5343 151.94 22.6064C151.94 22.6905 153.898 26.1379 156.288 30.2701C158.679 34.4022 161.009 38.3421 161.465 39.0388C161.934 39.7355 162.582 40.6484 162.931 41.0809C163.279 41.5133 163.82 42.1139 164.144 42.4142C164.468 42.7145 164.853 43.0028 165.009 43.0388C165.153 43.0869 165.273 43.207 165.273 43.3031C165.273 43.4593 164.745 43.4833 161.189 43.4833C157.634 43.4833 157.105 43.4593 157.105 43.3031C157.105 43.207 157.165 43.0989 157.225 43.0629C157.285 43.0268 157.345 42.8346 157.345 42.6424C157.345 42.4502 157.213 41.8857 157.045 41.4172C156.889 40.9367 156.54 40.0839 156.276 39.5193C156.012 38.9548 154.354 35.9878 152.576 32.9247C150.811 29.8617 149.309 27.3512 149.249 27.3391C149.201 27.3391 147.591 30.0298 145.682 33.3331C143.772 36.6364 141.994 39.8316 141.73 40.4202C141.477 41.0088 141.189 41.7896 141.105 42.1379C140.985 42.6424 140.973 42.8226 141.105 43.0028C141.177 43.1349 141.249 43.2911 141.249 43.3632C141.249 43.4352 140.528 43.4833 139.327 43.4833C137.874 43.4833 137.405 43.4472 137.405 43.3271C137.393 43.255 137.573 43.0989 137.778 43.0028C137.994 42.9067 138.546 42.4142 139.015 41.9217C139.483 41.4292 140.276 40.4562 140.781 39.7596C141.285 39.0629 143.267 35.7596 145.189 32.4082C148.324 26.9428 148.685 26.2821 148.564 26.0419C148.48 25.8857 146.715 22.8226 144.637 19.219C142.558 15.6154 140.613 12.2881 140.312 11.8317C140.012 11.3752 139.411 10.5103 138.967 9.90974C138.522 9.30914 137.85 8.51634 137.453 8.13196C137.069 7.74758 136.625 7.41124 136.48 7.3752Z" fill="#9D9D9D"/>
<path d="M69.4175 7.54337C69.2253 7.36319 69.0571 7.14698 69.0571 7.08692C69.0571 7.01484 70.2824 6.9668 72.4805 6.9668C75.4475 6.9668 75.904 6.99082 75.904 7.14698C75.904 7.24307 75.7959 7.38722 75.6637 7.44728C75.5316 7.50734 75.3154 7.85568 75.1953 8.19202C75.0631 8.54037 74.907 9.39322 74.8349 10.0899C74.7388 10.9428 74.7028 15.9277 74.7148 25.2851C74.7268 32.9487 74.7748 39.7596 74.8229 40.4202C74.8829 41.0809 75.0031 41.8376 75.2673 42.5824H83.4835C90.967 42.5824 91.7598 42.5583 92.3844 42.3662C92.7688 42.2581 93.2133 42.0298 93.3814 41.8617C93.5496 41.6935 93.7418 41.5614 93.8018 41.5614C93.8739 41.5614 93.922 41.9938 93.922 43.4833H81.4895C70.5226 43.4833 69.0571 43.4593 69.0571 43.3031C69.0571 43.207 69.1412 43.1229 69.2373 43.1229C69.3334 43.1229 69.5016 42.9427 69.6217 42.7385C69.7298 42.5223 69.898 42.0779 70.0061 41.7415C70.1622 41.213 70.1983 39.3271 70.2343 26.3061C70.2583 16.4803 70.2343 11.0269 70.1502 10.15C70.0781 9.42926 69.97 8.61244 69.898 8.36019C69.8379 8.09592 69.6217 7.73556 69.4175 7.54337Z" fill="#9D9D9D"/>
<path d="M162.427 7.12276C162.367 7.02666 161.73 6.9666 160.349 6.94258L158.367 6.89453L160.397 6.90654C162.102 6.90654 162.439 6.93057 162.475 7.08672C162.515 7.21485 162.499 7.22686 162.427 7.12276Z" fill="#DAC7BD"/>
<path d="M136.12 7.30361C136.06 7.25557 136.06 7.12343 136.108 7.02734C136.192 6.87118 136.745 6.84716 144.433 6.90722L140.313 6.93124C136.493 6.96728 136.204 6.97929 136.204 7.18349C136.204 7.2916 136.168 7.35166 136.12 7.30361Z" fill="#DAC7BD"/>
<path d="M99.2681 7.42423C99.1119 7.26808 98.9798 7.07588 98.9678 7.00381V6.9918C98.9678 6.88369 99.7125 6.84766 102.331 6.84766C104.457 6.84766 105.719 6.8957 105.755 6.96778C105.791 7.02784 105.707 7.17198 105.574 7.26808C105.442 7.36417 105.25 7.60441 105.154 7.80862C105.058 8.00081 104.89 8.6975 104.794 9.33414C104.649 10.3071 104.613 12.2531 104.613 20.5413C104.613 26.5834 104.661 31.1239 104.746 31.9527C104.806 32.7095 104.998 33.8987 105.142 34.5954C105.298 35.2921 105.61 36.3491 105.827 36.9377C106.055 37.5383 106.427 38.3431 106.655 38.7395C106.884 39.1239 107.448 39.8326 107.917 40.3011C108.469 40.8656 109.046 41.2981 109.598 41.5864C110.055 41.8266 110.788 42.1149 111.22 42.235C111.773 42.3792 112.481 42.4392 113.682 42.4512C114.848 42.4632 115.664 42.3912 116.325 42.259C116.854 42.1389 117.634 41.9347 118.067 41.7906C118.499 41.6584 119.232 41.3581 119.688 41.1419C120.145 40.9137 120.878 40.5053 121.31 40.217C121.743 39.9407 122.583 39.22 123.184 38.6194C123.785 38.0308 124.445 37.2981 124.637 36.9978C124.842 36.6975 125.226 36.0248 125.49 35.4963C125.755 34.9677 126.103 34.1029 126.535 32.6134V20.8416C126.535 9.97078 126.523 9.02183 126.331 8.38519C126.211 8.00081 125.983 7.56838 125.815 7.42423C125.658 7.26808 125.526 7.07588 125.514 7.00381C125.514 6.88369 125.899 6.84766 127.076 6.84766C128.385 6.84766 128.637 6.87168 128.637 7.02784C128.637 7.12393 128.553 7.24405 128.445 7.30411C128.337 7.35216 128.157 7.54435 128.061 7.74856C127.965 7.95276 127.809 8.51732 127.724 9.00982C127.604 9.70651 127.568 12.241 127.556 20.3852C127.556 27.1239 127.508 31.2921 127.424 32.0368C127.352 32.6855 127.16 33.6464 126.992 34.175C126.824 34.7035 126.475 35.5443 126.223 36.0368C125.971 36.5293 125.394 37.4182 124.95 38.0068C124.493 38.6074 123.785 39.3882 123.376 39.7485C122.956 40.1209 122.307 40.6254 121.935 40.8776C121.55 41.1419 120.842 41.5503 120.349 41.8026C119.857 42.0428 119.04 42.3912 118.547 42.5593C118.055 42.7275 117.19 42.9677 116.625 43.0879C115.869 43.244 115.112 43.3041 113.682 43.2921C112.025 43.2921 111.58 43.244 110.499 42.9797C109.803 42.7996 108.782 42.4632 108.217 42.235C107.652 41.9948 106.848 41.5864 106.415 41.3341C105.983 41.0819 105.202 40.5173 104.673 40.0849C104.145 39.6524 103.472 39.0038 103.172 38.6554C102.872 38.3071 102.451 37.7545 102.223 37.4182C102.007 37.0939 101.622 36.4092 101.37 35.9167C101.13 35.4242 100.83 34.7515 100.722 34.4152C100.613 34.0909 100.433 33.4422 100.325 32.9738C100.145 32.229 100.121 30.8116 100.049 20.5413C99.9888 10.0428 99.9648 8.8897 99.7726 8.32513C99.6645 7.97678 99.4362 7.56838 99.2681 7.42423Z" fill="#9D9D9D"/>
<path fill-rule="evenodd" clip-rule="evenodd" d="M0.000913288 6.89648C-0.0110987 7.00459 0.0970093 7.1127 0.229141 7.14874C0.361273 7.18477 0.577489 7.43702 0.697609 7.7133C0.829741 8.00159 0.997909 8.57816 1.06998 9.0106C1.15407 9.55114 1.1901 14.5722 1.16608 25.5872C1.13004 40.6742 1.11803 41.407 0.901813 42.0436C0.781693 42.4039 0.517429 42.8484 0.337249 43.0286C0.145057 43.2208 0.0129253 43.413 0.0489613 43.485C0.0849973 43.5691 2.75166 43.5811 7.8928 43.5331C14.6916 43.473 15.8327 43.437 17.0459 43.2448C17.8027 43.1247 18.9438 42.8484 19.5685 42.6442C20.1931 42.44 21.2021 42.0436 21.7907 41.7433C22.3793 41.455 23.2201 40.9985 23.6525 40.7103C24.085 40.434 24.8057 39.9055 25.2742 39.5211C25.7426 39.1487 26.5114 38.416 26.9919 37.8874C27.4844 37.3709 28.1691 36.5061 28.5174 35.9775C28.8657 35.449 29.3462 34.6202 29.5865 34.1397C29.8267 33.6712 30.1751 32.8064 30.3672 32.2178C30.5594 31.6412 30.8117 30.7643 30.9198 30.2718C31.076 29.5992 31.136 28.5061 31.1841 26.0076C31.2201 23.9415 31.1961 22.1757 31.112 21.443C31.0519 20.7824 30.8597 19.7253 30.7036 19.1007C30.5474 18.4761 30.1751 17.419 29.8868 16.7583C29.5985 16.0977 28.9859 14.9926 28.5294 14.2959C28.0009 13.5031 27.2321 12.5902 26.4754 11.8334C25.8147 11.1728 24.7817 10.2959 24.1931 9.89948C23.6045 9.49108 22.6195 8.9145 22.0309 8.6142C21.4423 8.3139 20.4573 7.90549 19.8688 7.70129C19.2802 7.48507 18.2712 7.19678 17.6465 7.06465C16.5534 6.8124 16.1691 6.80039 8.25316 6.76435C0.865777 6.7163 0.000913288 6.74033 0.000913288 6.89648ZM6.5115 8.32609C6.3073 8.91468 6.29529 9.97173 6.25925 24.6864C6.23523 38.7765 6.24724 40.5182 6.42742 41.3831C6.52352 41.9116 6.66766 42.4161 6.72772 42.5002C6.8118 42.6083 7.8088 42.6324 11.3043 42.5723C14.5475 42.5242 15.977 42.4522 16.4694 42.3321C16.8538 42.236 17.4544 42.0197 17.7908 41.8516C18.1391 41.6714 18.7277 41.299 19.0881 41.0227C19.4484 40.7465 20.2412 40.0017 20.8298 39.3891C21.4304 38.7645 22.2232 37.8035 22.5956 37.239C22.9679 36.6744 23.4965 35.7615 23.7727 35.1969C24.061 34.6324 24.4574 33.6354 24.6736 32.9747C24.8899 32.314 25.1421 31.4011 25.2262 30.9327C25.3463 30.308 25.3944 28.9147 25.3944 25.4672C25.3944 21.5513 25.3583 20.6984 25.1902 19.8816C25.07 19.3531 24.8418 18.4882 24.6736 17.9597C24.4935 17.4312 24.1571 16.5663 23.9049 16.0378C23.6646 15.5093 23.1601 14.6204 22.7998 14.0558C22.4394 13.4912 21.7908 12.6264 21.3583 12.1339C20.9379 11.6414 20.1812 10.8967 19.6887 10.4762C19.1962 10.0558 18.4154 9.46723 17.9469 9.15492C17.4785 8.85462 16.8298 8.48224 16.5055 8.3381C16.1692 8.18194 15.5085 7.97774 15.028 7.86963C14.3553 7.72549 13.3343 7.68945 10.4394 7.68945H6.72772L6.5115 8.32609Z" fill="#DAC7BD"/>
<path fill-rule="evenodd" clip-rule="evenodd" d="M45.982 0.252252C45.7418 0.384384 45.4055 0.684684 45.2373 0.936936C45.0571 1.17718 44.889 1.62162 44.8409 1.92192C44.7929 2.29429 44.8289 2.61862 44.949 2.94294C45.0571 3.2072 45.3334 3.6036 45.5616 3.8078C45.8019 4.02402 46.1382 4.24023 46.3304 4.27627C46.5106 4.32432 46.931 4.33633 47.2673 4.31231C47.6877 4.27627 48.0001 4.16816 48.3124 3.92792C48.5526 3.74774 48.8289 3.45946 48.925 3.26726C49.0091 3.08708 49.1292 2.75075 49.1772 2.52252C49.2253 2.29429 49.2013 1.88588 49.1292 1.62162C49.0571 1.35736 48.8169 0.96096 48.6007 0.732732C48.3965 0.504504 48.0361 0.252252 47.8319 0.168168C47.6157 0.072072 47.2073 0 46.931 0C46.6427 0.012012 46.2223 0.12012 45.982 0.252252ZM46.1745 1.36935C45.9463 1.59757 45.7781 1.90989 45.7661 2.09007C45.7541 2.25823 45.8382 2.57055 45.9343 2.76274C46.0304 2.96694 46.2947 3.20718 46.5109 3.30328C46.7992 3.4234 47.0034 3.44742 47.3517 3.36334C47.652 3.27925 47.8802 3.1231 48.0364 2.85883C48.2166 2.57055 48.2646 2.34232 48.2286 2.04202C48.1926 1.77775 48.0244 1.50148 47.7962 1.29727C47.5439 1.05703 47.3037 0.960938 47.0034 0.960938C46.667 0.960938 46.4748 1.05703 46.1745 1.36935Z" fill="#DAC7BD"/>
<path d="M3.68217 67.1133C2.89473 67.1133 2.28228 66.8781 1.84481 66.4079C1.40735 65.9266 1.18862 65.2595 1.18862 64.4065V57.9921C1.18862 57.15 1.40735 56.4938 1.84481 56.0235C2.28228 55.5423 2.89473 55.3017 3.68217 55.3017C4.49148 55.3017 5.11487 55.5368 5.55233 56.0071C5.9898 56.4774 6.20853 57.1391 6.20853 57.9921V59.1733H5.24064V57.9429C5.24064 57.3961 5.09846 56.975 4.81411 56.6797C4.5407 56.3735 4.16885 56.2204 3.69857 56.2204C3.2283 56.2204 2.86192 56.3735 2.59944 56.6797C2.33696 56.975 2.20572 57.3961 2.20572 57.9429V64.4721C2.20572 65.0189 2.33696 65.44 2.59944 65.7353C2.86192 66.0305 3.2283 66.1782 3.69857 66.1782C4.19072 66.1782 4.56804 66.0305 4.83052 65.7353C5.10393 65.44 5.24064 65.0189 5.24064 64.4721V62.9136H6.20853V64.4065C6.20853 65.2595 5.9898 65.9266 5.55233 66.4079C5.11487 66.8781 4.49148 67.1133 3.68217 67.1133ZM14.3259 66.9492H9.88017V55.4657H10.8973V66.0141H14.3259V66.9492ZM18.7851 66.9492H17.768V55.4657H18.7851V66.9492ZM23.6912 66.9492H22.7561V55.4657H24.1013L27.087 64.3408V55.4657H28.0385V66.9492H26.9558L23.6912 57.1555V66.9492ZM33.0068 66.9492H31.9897V55.4657H33.0068V66.9492ZM39.3565 67.1133C38.5691 67.1133 37.9567 66.8781 37.5192 66.4079C37.0817 65.9266 36.863 65.2595 36.863 64.4065V57.9921C36.863 57.15 37.0817 56.4938 37.5192 56.0235C37.9567 55.5423 38.5691 55.3017 39.3565 55.3017C40.1659 55.3017 40.7892 55.5368 41.2267 56.0071C41.6642 56.4774 41.8829 57.1391 41.8829 57.9921V59.1733H40.915V57.9429C40.915 57.3961 40.7728 56.975 40.4885 56.6797C40.2151 56.3735 39.8432 56.2204 39.373 56.2204C38.9027 56.2204 38.5363 56.3735 38.2738 56.6797C38.0113 56.975 37.8801 57.3961 37.8801 57.9429V64.4721C37.8801 65.0189 38.0113 65.44 38.2738 65.7353C38.5363 66.0305 38.9027 66.1782 39.373 66.1782C39.8651 66.1782 40.2424 66.0305 40.5049 65.7353C40.7783 65.44 40.915 65.0189 40.915 64.4721V62.9136H41.8829V64.4065C41.8829 65.2595 41.6642 65.9266 41.2267 66.4079C40.7892 66.8781 40.1659 67.1133 39.3565 67.1133ZM58.1876 66.9492H55.5628V55.4657H58.04C58.9368 55.4657 59.5821 55.6735 59.9758 56.0891C60.3804 56.5047 60.5828 57.1664 60.5828 58.0741V58.5499C60.5828 59.7748 60.1453 60.5458 59.2704 60.863V60.8958C60.2656 61.1692 60.7632 61.9785 60.7632 63.3237V64.2916C60.7632 66.0634 59.9047 66.9492 58.1876 66.9492ZM56.58 56.3844V60.5021H57.8431C58.4337 60.5021 58.8657 60.3654 59.1391 60.0919C59.4235 59.8076 59.5657 59.3592 59.5657 58.7467V58.1562C59.5657 57.5328 59.4454 57.0844 59.2048 56.811C58.9641 56.5266 58.565 56.3844 58.0072 56.3844H56.58ZM56.58 61.4207V66.0141H58.1876C58.7345 66.0141 59.1282 65.8774 59.3688 65.604C59.6203 65.3306 59.7461 64.8877 59.7461 64.2752V63.2909C59.7461 62.6128 59.6039 62.1316 59.3196 61.8473C59.0462 61.5629 58.5704 61.4207 57.8924 61.4207H56.58ZM67.0421 66.9492H66.025V61.8309L63.6463 55.4657H64.729L66.5663 60.5021L68.4201 55.4657H69.4208L67.0421 61.8309V66.9492ZM85.4119 66.9492H82.8528V55.4657H85.4119C86.2869 55.4657 86.9321 55.6954 87.3477 56.1548C87.7633 56.6032 87.9711 57.2922 87.9711 58.2218V64.1768C87.9711 65.1173 87.7633 65.8173 87.3477 66.2766C86.9321 66.725 86.2869 66.9492 85.4119 66.9492ZM83.8699 56.3844V66.0141H85.3955C85.9424 66.0141 86.3361 65.8774 86.5767 65.604C86.8282 65.3197 86.954 64.8603 86.954 64.226V58.189C86.954 57.5437 86.8282 57.0844 86.5767 56.811C86.3251 56.5266 85.9314 56.3844 85.3955 56.3844H83.8699ZM97.1311 66.9492H96.0976L95.6054 64.4065H92.6689L92.1932 66.9492H91.2253L93.4728 55.4657H94.8508L97.1311 66.9492ZM94.129 56.7125L92.8494 63.5042H95.4414L94.129 56.7125ZM101.616 66.9492H100.599V55.4657H103.043C103.929 55.4657 104.574 55.6735 104.979 56.0891C105.384 56.5047 105.586 57.1664 105.586 58.0741V58.7795C105.586 60.081 105.121 60.852 104.192 61.0926V61.1255C105.121 61.3223 105.586 62.1098 105.586 63.4878V65.5712C105.586 66.1727 105.641 66.6321 105.75 66.9492H104.717C104.618 66.5555 104.569 66.0907 104.569 65.5548V63.4386C104.569 62.7824 104.438 62.323 104.175 62.0605C103.924 61.7871 103.486 61.6504 102.863 61.6504H101.616V66.9492ZM101.616 56.3844V60.6989H102.846C103.437 60.6989 103.869 60.5622 104.142 60.2888C104.427 60.0154 104.569 59.5725 104.569 58.96V58.1562C104.569 57.5328 104.449 57.0844 104.208 56.811C103.967 56.5266 103.568 56.3844 103.01 56.3844H101.616ZM110.465 66.9492H109.448V55.4657H110.465V66.9492ZM119.833 66.9492H118.8L118.308 64.4065H115.371L114.895 66.9492H113.928L116.175 55.4657H117.553L119.833 66.9492ZM116.831 56.7125L115.552 63.5042H118.144L116.831 56.7125ZM133.178 64.308V58.1069C133.178 57.1992 133.397 56.5047 133.834 56.0235C134.283 55.5423 134.923 55.3017 135.754 55.3017C136.585 55.3017 137.219 55.5423 137.657 56.0235C138.105 56.5047 138.329 57.1992 138.329 58.1069V64.308C138.329 65.2158 138.105 65.9102 137.657 66.3915C137.219 66.8727 136.585 67.1133 135.754 67.1133C134.923 67.1133 134.283 66.8727 133.834 66.3915C133.397 65.9102 133.178 65.2158 133.178 64.308ZM137.312 64.3736V58.0413C137.312 56.8274 136.793 56.2204 135.754 56.2204C134.715 56.2204 134.195 56.8274 134.195 58.0413V64.3736C134.195 65.5767 134.715 66.1782 135.754 66.1782C136.793 66.1782 137.312 65.5767 137.312 64.3736ZM147.67 66.9492H146.588L144.471 60.9286L143.192 63.0941V66.9492H142.175V55.4657H143.192V61.4536L146.571 55.4657H147.637L145.144 59.8131L147.67 66.9492ZM153.173 67.1133C152.364 67.1133 151.74 66.8781 151.303 66.4079C150.876 65.9266 150.663 65.254 150.663 64.39V63.7503H151.631V64.4557C151.631 65.0134 151.762 65.44 152.025 65.7353C152.298 66.0305 152.681 66.1782 153.173 66.1782C153.665 66.1782 154.043 66.0305 154.305 65.7353C154.578 65.429 154.715 64.997 154.715 64.4393C154.715 63.8815 154.578 63.3948 154.305 62.9792C154.032 62.5636 153.54 62.066 152.829 61.4864C152.019 60.8411 151.456 60.2615 151.139 59.7474C150.822 59.2115 150.663 58.621 150.663 57.9757C150.663 57.1336 150.882 56.4774 151.319 56.0071C151.768 55.5368 152.391 55.3017 153.19 55.3017C153.977 55.3017 154.584 55.5423 155.01 56.0235C155.448 56.4938 155.667 57.1609 155.667 58.0249V58.4843H154.699V57.9593C154.699 57.3906 154.568 56.9586 154.305 56.6633C154.043 56.368 153.671 56.2204 153.19 56.2204C152.719 56.2204 152.347 56.368 152.074 56.6633C151.812 56.9586 151.68 57.3742 151.68 57.9101C151.68 58.4241 151.817 58.8834 152.09 59.2881C152.375 59.7146 152.878 60.2122 153.6 60.781C154.398 61.4372 154.956 62.0277 155.273 62.5527C155.579 63.0558 155.732 63.6628 155.732 64.3736C155.732 65.2486 155.508 65.9266 155.06 66.4079C154.622 66.8781 153.993 67.1133 153.173 67.1133ZM163.937 66.9492H159.344V55.4657H163.937V56.3844H160.361V60.5021H163.298V61.4207H160.361V66.0141H163.937V66.9492ZM168.375 66.9492H167.44V55.4657H168.785L171.771 64.3408V55.4657H172.723V66.9492H171.64L168.375 57.1555V66.9492ZM179.266 66.9492H178.249V56.3844H176.149V55.4657H181.382V56.3844H179.266V66.9492ZM184.768 64.308V55.4657H185.785V64.3736C185.785 65.5767 186.299 66.1782 187.327 66.1782C188.356 66.1782 188.87 65.5767 188.87 64.3736V55.4657H189.854V64.308C189.854 65.2158 189.635 65.9102 189.198 66.3915C188.771 66.8727 188.142 67.1133 187.311 67.1133C186.48 67.1133 185.846 66.8727 185.408 66.3915C184.982 65.9102 184.768 65.2158 184.768 64.308ZM199.259 66.9492H198.176L196.06 60.9286L194.78 63.0941V66.9492H193.763V55.4657H194.78V61.4536L198.16 55.4657H199.226L196.732 59.8131L199.259 66.9492Z" fill="#9D9D9D"/>
</svg>
