<svg width="119" height="40" viewBox="0 0 119 40" fill="none" xmlns="http://www.w3.org/2000/svg">
<path d="M95.1621 24.0733L95.1687 23.9274V23.9208C95.1754 23.8213 95.182 23.808 95.2019 23.8876C95.2284 24.0004 95.6197 24.007 108.99 24.0402L95.1621 24.0733Z" fill="#DAC7BD"/>
<path d="M105.276 23.523C104.069 23.5363 102.072 23.5363 100.832 23.523C99.5919 23.5164 100.58 23.5098 103.021 23.5098C105.461 23.5098 106.483 23.5164 105.276 23.523Z" fill="#DAC7BD"/>
<path d="M63.163 23.4574C63.0171 23.4707 62.7518 23.4707 62.5661 23.4574C62.3804 23.4441 62.4998 23.4375 62.8314 23.4375C63.163 23.4375 63.3089 23.4441 63.163 23.4574Z" fill="#DAC7BD"/>
<path d="M45.9858 23.522C43.5784 23.5353 41.5888 23.5154 41.5623 23.4889C41.5357 23.4623 43.5054 23.4557 50.3629 23.5088L45.9858 23.522Z" fill="#DAC7BD"/>
<path d="M51.8551 23.4753C51.8551 23.0243 51.8352 22.9381 51.7424 22.9182C51.6584 22.8961 51.6628 22.8895 51.7556 22.8983C51.875 22.9116 51.8883 22.9646 51.8883 24.039H38.127L51.8551 24.0059V23.4753Z" fill="#DAC7BD"/>
<path d="M105.177 13.2636L101.748 13.2437L98.3125 13.2305H105.21L105.243 13.7942L98.3125 13.761L105.177 13.7279V13.2636Z" fill="#DAC7BD"/>
<path d="M41.2911 17.7374C41.2845 19.8862 41.2778 18.1154 41.2778 13.7914C41.2778 9.46737 41.2845 7.7099 41.2911 9.87855C41.3044 12.0472 41.3044 15.5887 41.2911 17.7374Z" fill="#DAC7BD"/>
<path d="M38.7711 18.1715C38.7644 20.4529 38.7578 18.6158 38.7578 14.0928C38.7578 9.56981 38.7644 7.70623 38.7711 9.94783C38.7843 12.1894 38.7843 15.8901 38.7711 18.1715Z" fill="#DAC7BD"/>
<path d="M57.8043 14.3232C57.7976 15.9082 57.791 14.5951 57.791 11.4051C57.791 8.21513 57.7976 6.91526 57.8043 8.5202C57.8175 10.1251 57.8175 12.7381 57.8043 14.3232Z" fill="#DAC7BD"/>
<path d="M95.8057 18.1395C95.7991 20.474 95.7925 18.5971 95.7925 13.9614C95.7925 9.33226 95.7991 7.41562 95.8057 9.71691C95.819 12.0182 95.819 15.8051 95.8057 18.1395Z" fill="#DAC7BD"/>
<path fill-rule="evenodd" clip-rule="evenodd" d="M25.6727 4.08723C25.6409 4.18257 24.3053 7.68965 22.6645 11.9983L22.4495 12.5629C20.2809 18.2531 19.1468 21.1446 18.8285 21.7813C18.5765 22.292 18.2117 22.9154 18.0194 23.174C17.8204 23.4327 17.575 23.6847 17.4557 23.7377C17.3363 23.7908 17.2368 23.8903 17.2368 23.9566C17.2368 24.0627 17.3363 24.0693 18.3974 24.0693C19.3856 24.0693 19.558 24.0561 19.558 23.9698C19.558 23.9168 19.5116 23.8173 19.4519 23.751C19.359 23.6581 19.3458 23.5388 19.3789 23.0082C19.4055 22.6368 19.4983 22.0797 19.6177 21.6487C19.7238 21.2441 19.9294 20.6207 20.0687 20.2559L20.3273 19.5928C28.4647 19.5596 29.3534 19.5729 29.4131 19.6392C29.4529 19.6856 29.6054 20.0504 29.758 20.4549C29.9039 20.8595 30.1095 21.4829 30.2023 21.8476C30.3018 22.2124 30.3946 22.7628 30.4145 23.0745C30.4477 23.5388 30.4344 23.6581 30.3416 23.751C30.2819 23.8173 30.2355 23.9168 30.2355 23.9698C30.2355 24.0561 30.5273 24.0693 32.4572 24.0693C34.5263 24.0693 34.6789 24.0627 34.6789 23.9499C34.6789 23.8903 34.5794 23.7908 34.46 23.7377C34.3406 23.6847 34.0953 23.4393 33.9029 23.174C33.7106 22.9154 33.3724 22.3516 33.1535 21.9139C32.9015 21.4099 31.5685 17.9944 29.486 12.5297L26.2165 3.94132C25.7722 3.90153 25.7324 3.92143 25.6727 4.08723ZM24.5671 8.46085C24.1957 9.43434 23.4813 11.3069 22.6751 13.4231C21.5145 16.4871 20.5662 19.0006 20.5728 19.0072C20.5794 19.0139 22.5027 19.0271 24.8438 19.0271C27.1849 19.0271 29.1148 19.0139 29.1347 18.994C29.1612 18.9741 28.2062 16.4141 27.0257 13.3037C25.8386 10.2 24.857 7.69973 24.8371 7.75278C24.831 7.76919 24.7334 8.02485 24.5671 8.46085Z" fill="#DAC7BD"/>
<path d="M95.3352 4.11293C95.2755 4.05988 95.2224 3.97366 95.2291 3.93387V3.92724C95.2291 3.86755 96.6483 3.84766 108.957 3.84766V4.41137C108.957 4.74297 108.931 4.97509 108.891 4.97509C108.858 4.97509 108.745 4.88887 108.639 4.78276C108.506 4.65012 108.334 4.57054 107.982 4.48432C107.558 4.39148 106.948 4.37821 98.6114 4.37821L98.5451 4.59044C98.5119 4.70981 98.4522 5.00162 98.4124 5.24037C98.3726 5.49901 98.3461 7.1968 98.3461 13.265H105.177V13.7293H98.3461V17.987C98.3461 20.5801 98.3726 22.4238 98.4124 22.6824C98.4522 22.9212 98.5119 23.213 98.6114 23.5446H102.955C106.371 23.5446 107.405 23.5247 107.777 23.4517C108.042 23.4053 108.347 23.3191 108.46 23.266C108.573 23.2064 108.679 23.1135 108.705 23.0538C108.738 22.9941 108.805 22.9477 108.858 22.9477C108.937 22.9477 108.957 23.0538 108.957 24.0088H102.093C97.5635 24.0088 95.2291 23.9889 95.2291 23.9425C95.2291 23.9027 95.302 23.8032 95.3949 23.7104C95.4877 23.6175 95.5938 23.4186 95.6336 23.2594C95.6734 23.1069 95.7331 22.8018 95.7663 22.5829C95.7994 22.3641 95.826 18.491 95.826 13.9747C95.826 8.47013 95.7994 5.59849 95.753 5.26026C95.7132 4.97509 95.6336 4.6236 95.5673 4.47769C95.501 4.33179 95.4015 4.16599 95.3352 4.11293Z" fill="white"/>
<path d="M75.3522 4.07314C75.266 4.05988 75.1997 4.00019 75.1997 3.94714C75.1997 3.86092 75.4915 3.84766 77.4546 3.84766C79.4176 3.84766 79.7094 3.86092 79.7094 3.94714C79.7094 4.00019 79.6763 4.04662 79.6431 4.04662C79.61 4.04662 79.5768 4.1262 79.5768 4.22568C79.5768 4.33179 79.6365 4.6236 79.7161 4.87561C79.7957 5.12762 79.9946 5.62502 80.1538 5.96988C80.3129 6.31475 81.1353 7.80031 81.9842 9.26597C82.8331 10.7383 83.5361 11.9387 83.556 11.9387C83.5759 11.9453 84.2921 10.725 85.1543 9.23944C86.0164 7.75388 86.8454 6.29485 86.9913 6.00304C87.1306 5.71124 87.3296 5.25363 87.429 4.99499C87.5219 4.72971 87.6015 4.40474 87.6015 4.27873C87.6015 4.15273 87.5683 4.03335 87.5352 4.01346C87.502 3.99356 87.4688 3.94714 87.4688 3.91398C87.4688 3.87418 87.88 3.84766 88.5631 3.84766C89.4916 3.84766 89.6574 3.86092 89.6574 3.94714C89.6574 4.00019 89.6176 4.04662 89.5778 4.04662C89.5314 4.04662 89.3722 4.1262 89.2263 4.23231C89.0804 4.33179 88.7488 4.67002 88.4902 4.98172C88.2315 5.28679 87.8203 5.82398 87.5816 6.16884C87.3428 6.51371 86.4144 8.05895 85.519 9.59757C84.6237 11.1428 83.8876 12.4427 83.8876 12.4825C83.8876 12.5289 84.9686 14.4323 86.2883 16.7137C87.6081 18.9951 88.8947 21.1703 89.1467 21.555C89.4054 21.9396 89.7635 22.4437 89.9558 22.6824C90.1481 22.9212 90.4466 23.2528 90.6256 23.4186C90.8047 23.5844 91.0169 23.7435 91.1032 23.7634C91.1827 23.79 91.2491 23.8563 91.2491 23.9093C91.2491 23.9956 90.9572 24.0088 88.9942 24.0088C87.0311 24.0088 86.7393 23.9956 86.7393 23.9093C86.7393 23.8563 86.7725 23.7966 86.8056 23.7767C86.8388 23.7568 86.872 23.6507 86.872 23.5446C86.872 23.4385 86.799 23.1268 86.7062 22.8681C86.6199 22.6028 86.4276 22.132 86.2817 21.8203C86.1358 21.5086 85.2206 19.8705 84.2391 18.1793C83.2642 16.4882 82.4352 15.1021 82.402 15.0955C82.3755 15.0955 81.4868 16.581 80.4323 18.4048C79.3778 20.2286 78.3963 21.9927 78.2504 22.3177C78.1111 22.6426 77.952 23.0737 77.9055 23.266C77.8392 23.5446 77.8326 23.6441 77.9055 23.7435C77.9453 23.8165 77.9851 23.9027 77.9851 23.9425C77.9851 23.9823 77.5872 24.0088 76.924 24.0088C76.1215 24.0088 75.8629 23.9889 75.8629 23.9226C75.8563 23.8828 75.9558 23.7966 76.0685 23.7435C76.1879 23.6905 76.4929 23.4186 76.7516 23.1467C77.0102 22.8748 77.4479 22.3376 77.7265 21.9529C78.005 21.5683 79.0993 19.7445 80.1604 17.8942C81.8914 14.8766 82.0903 14.5119 82.024 14.3792C81.9776 14.293 81.0027 12.6018 79.8553 10.6123C78.708 8.62267 77.6336 6.78562 77.4678 6.5336C77.302 6.28159 76.9704 5.80409 76.7251 5.47249C76.4797 5.14089 76.1083 4.70318 75.8894 4.49096C75.6772 4.27873 75.4318 4.09304 75.3522 4.07314Z" fill="white"/>
<path d="M38.3259 4.16599C38.2198 4.06651 38.127 3.94714 38.127 3.91398C38.127 3.87418 38.8034 3.84766 40.0171 3.84766C41.6552 3.84766 41.9072 3.86092 41.9072 3.94714C41.9072 4.00019 41.8475 4.07977 41.7745 4.11293C41.7016 4.14609 41.5822 4.33842 41.5159 4.52412C41.4429 4.71644 41.3567 5.18731 41.3169 5.57197C41.2639 6.04284 41.244 8.7951 41.2506 13.9614C41.2572 18.1926 41.2838 21.9529 41.3103 22.3177C41.3435 22.6824 41.4098 23.1002 41.5557 23.5114H46.0919C50.2237 23.5114 50.6614 23.4982 51.0062 23.392C51.2184 23.3324 51.4638 23.2064 51.5567 23.1135C51.6495 23.0207 51.7556 22.9477 51.7888 22.9477C51.8286 22.9477 51.8551 23.1865 51.8551 24.0088H44.991C38.9361 24.0088 38.127 23.9956 38.127 23.9093C38.127 23.8563 38.1734 23.8099 38.2264 23.8099C38.2795 23.8099 38.3723 23.7104 38.4387 23.5976C38.4983 23.4783 38.5912 23.2329 38.6509 23.0472C38.7371 22.7554 38.757 21.7142 38.7769 14.5251C38.7901 9.10017 38.7769 6.08926 38.7305 5.60513C38.6907 5.20721 38.631 4.75624 38.5912 4.61696C38.558 4.47106 38.4387 4.2721 38.3259 4.16599Z" fill="white"/>
<path d="M89.6776 3.93069C89.6445 3.87764 89.293 3.84448 88.5303 3.83122L87.436 3.80469L88.5568 3.81132C89.4986 3.81132 89.6843 3.82458 89.7042 3.9108C89.7263 3.98154 89.7174 3.98817 89.6776 3.93069Z" fill="#DAC7BD"/>
<path d="M75.1532 4.03049C75.12 4.00396 75.12 3.93101 75.1466 3.87795C75.193 3.79174 75.4981 3.77847 79.7425 3.81163L77.4678 3.8249C75.3588 3.84479 75.1996 3.85142 75.1996 3.96417C75.1996 4.02385 75.1797 4.05701 75.1532 4.03049Z" fill="#DAC7BD"/>
<path d="M54.8069 4.09763C54.7207 4.01142 54.6477 3.9053 54.6411 3.86551V3.85888C54.6411 3.79919 55.0523 3.7793 56.4981 3.7793C57.6719 3.7793 58.3683 3.80582 58.3882 3.84562C58.4081 3.87878 58.3616 3.95836 58.2887 4.01142C58.2157 4.06447 58.1096 4.19711 58.0566 4.30985C58.0035 4.41597 57.9107 4.80062 57.8576 5.15211C57.778 5.6893 57.7581 6.76368 57.7581 11.3397C57.7581 14.6756 57.7847 17.1825 57.8311 17.6401C57.8642 18.0579 57.9704 18.7145 58.0499 19.0991C58.1362 19.4838 58.3086 20.0674 58.428 20.3924C58.554 20.724 58.7596 21.1683 58.8856 21.3872C59.0116 21.5994 59.3233 21.9907 59.5819 22.2493C59.887 22.561 60.2053 22.7998 60.5104 22.9589C60.7624 23.0916 61.167 23.2507 61.4057 23.3171C61.7108 23.3966 62.1021 23.4298 62.7653 23.4364C63.4086 23.4431 63.8595 23.4033 64.2243 23.3303C64.5161 23.264 64.9472 23.1513 65.1859 23.0717C65.4247 22.9987 65.8292 22.8329 66.0812 22.7136C66.3333 22.5875 66.7378 22.3621 66.9766 22.2029C67.2153 22.0504 67.6796 21.6524 68.0111 21.3208C68.3427 20.9959 68.7075 20.5913 68.8136 20.4255C68.9264 20.2597 69.1386 19.8883 69.2845 19.5965C69.4304 19.3047 69.6227 18.8272 69.8615 18.0049V11.5055C69.8615 5.50361 69.8548 4.97968 69.7487 4.62819C69.6824 4.41597 69.5564 4.17721 69.4635 4.09763C69.3773 4.01142 69.3044 3.9053 69.2977 3.86551C69.2977 3.79919 69.51 3.7793 70.1599 3.7793C70.8828 3.7793 71.0221 3.79256 71.0221 3.87878C71.0221 3.93183 70.9756 3.99815 70.9159 4.03131C70.8563 4.05784 70.7568 4.16395 70.7037 4.27669C70.6507 4.38944 70.5645 4.70114 70.518 4.97305C70.4517 5.3577 70.4318 6.75705 70.4252 11.2535C70.4252 14.974 70.3987 17.2753 70.3522 17.6865C70.3124 18.0446 70.2063 18.5752 70.1135 18.867C70.0206 19.1588 69.8283 19.6231 69.689 19.895C69.5498 20.1669 69.2314 20.6576 68.986 20.9826C68.734 21.3142 68.3427 21.7453 68.1173 21.9442C67.8851 22.1498 67.527 22.4284 67.3214 22.5676C67.1092 22.7136 66.7179 22.939 66.446 23.0783C66.1741 23.2109 65.7231 23.4033 65.4512 23.4961C65.1793 23.589 64.7018 23.7216 64.3901 23.7879C63.9723 23.8741 63.5545 23.9073 62.7653 23.9007C61.8501 23.9007 61.6047 23.8741 61.0078 23.7282C60.6231 23.6288 60.0594 23.4431 59.7477 23.3171C59.436 23.1844 58.9917 22.9589 58.7529 22.8197C58.5142 22.6804 58.0831 22.3687 57.7913 22.1299C57.4995 21.8912 57.1281 21.5331 56.9623 21.3407C56.7965 21.1484 56.5644 20.8433 56.4384 20.6576C56.319 20.4786 56.1068 20.1006 55.9675 19.8286C55.8349 19.5567 55.6691 19.1853 55.6094 18.9997C55.5497 18.8206 55.4502 18.4625 55.3905 18.2038C55.291 17.7926 55.2778 17.0101 55.238 11.3397C55.2048 5.5434 55.1916 4.90673 55.0855 4.59503C55.0258 4.4027 54.8998 4.17721 54.8069 4.09763Z" fill="white"/>
<path fill-rule="evenodd" clip-rule="evenodd" d="M0.000504236 3.80394C-0.00612773 3.86363 0.0535599 3.92331 0.126511 3.94321C0.199463 3.96311 0.318838 4.10238 0.385158 4.25491C0.45811 4.41408 0.550957 4.73241 0.590749 4.97116C0.637173 5.2696 0.657068 8.04176 0.643804 14.1233C0.623909 22.453 0.617277 22.8576 0.497901 23.2091C0.431582 23.408 0.285679 23.6534 0.186199 23.7529C0.0800878 23.859 0.0071362 23.9651 0.0270321 24.0049C0.046928 24.0513 1.51922 24.058 4.3577 24.0314C8.11139 23.9983 8.74143 23.9784 9.41126 23.8723C9.82907 23.8059 10.4591 23.6534 10.804 23.5407C11.1488 23.4279 11.7059 23.2091 12.0309 23.0433C12.3558 22.8841 12.8201 22.6321 13.0588 22.4729C13.2976 22.3204 13.6955 22.0286 13.9542 21.8163C14.2128 21.6108 14.6372 21.2062 14.9025 20.9144C15.1744 20.6292 15.5525 20.1517 15.7448 19.8599C15.9371 19.5681 16.2024 19.1105 16.335 18.8452C16.4677 18.5866 16.66 18.1091 16.7661 17.7841C16.8722 17.4658 17.0115 16.9816 17.0712 16.7097C17.1574 16.3383 17.1905 15.7348 17.2171 14.3554C17.237 13.2147 17.2237 12.2398 17.1773 11.8352C17.1441 11.4705 17.038 10.8869 16.9518 10.542C16.8656 10.1972 16.66 9.61354 16.5008 9.24878C16.3417 8.88402 16.0034 8.27388 15.7514 7.88923C15.4596 7.45152 15.0352 6.94749 14.6173 6.52968C14.2526 6.16492 13.6822 5.68078 13.3573 5.46193C13.0323 5.23644 12.4885 4.91811 12.1635 4.75231C11.8386 4.58651 11.2947 4.36102 10.9698 4.24828C10.6448 4.12891 10.0877 3.96974 9.74286 3.89679C9.13935 3.75752 8.92712 3.75088 4.55666 3.73099C0.478005 3.70446 0.000504236 3.71772 0.000504236 3.80394ZM3.59506 4.59368C3.48232 4.91865 3.47569 5.50226 3.45579 13.6264C3.44253 21.4057 3.44916 22.3673 3.54864 22.8448C3.6017 23.1366 3.68128 23.4152 3.71444 23.4616C3.76086 23.5213 4.31132 23.5346 6.24122 23.5014C8.03185 23.4749 8.82105 23.4351 9.09296 23.3688C9.30518 23.3157 9.63678 23.1963 9.82247 23.1035C10.0148 23.004 10.3398 22.7984 10.5387 22.6459C10.7377 22.4933 11.1754 22.0822 11.5004 21.7439C11.832 21.3991 12.2697 20.8685 12.4753 20.5568C12.6808 20.2451 12.9727 19.7411 13.1252 19.4294C13.2844 19.1177 13.5032 18.5672 13.6226 18.2025C13.742 17.8377 13.8812 17.3337 13.9277 17.075C13.994 16.7302 14.0205 15.9609 14.0205 14.0575C14.0205 11.8955 14.0006 11.4246 13.9078 10.9736C13.8414 10.6818 13.7154 10.2043 13.6226 9.91251C13.5231 9.62071 13.3374 9.14321 13.1981 8.8514C13.0655 8.55959 12.787 8.06883 12.588 7.75713C12.389 7.44542 12.0309 6.96792 11.7922 6.69601C11.56 6.4241 11.1422 6.01292 10.8703 5.7808C10.5984 5.54868 10.1673 5.22372 9.90869 5.05129C9.65004 4.88549 9.29192 4.6799 9.11285 4.60031C8.92716 4.5141 8.5624 4.40135 8.29712 4.34167C7.92573 4.26208 7.36202 4.24219 5.76371 4.24219H3.71444L3.59506 4.59368Z" fill="#DAC7BD"/>
<path fill-rule="evenodd" clip-rule="evenodd" d="M25.3875 0.139271C25.2549 0.212223 25.0692 0.378022 24.9763 0.517293C24.8768 0.649932 24.784 0.895315 24.7575 1.06111C24.7309 1.2667 24.7508 1.44577 24.8172 1.62483C24.8768 1.77073 25.0294 1.98959 25.1554 2.10233C25.288 2.22171 25.4737 2.34108 25.5798 2.36098C25.6793 2.38751 25.9114 2.39414 26.0971 2.38087C26.3292 2.36098 26.5017 2.30129 26.6741 2.16865C26.8067 2.06917 26.9593 1.91 27.0123 1.80389C27.0588 1.70441 27.1251 1.51872 27.1516 1.39271C27.1781 1.2667 27.1649 1.04122 27.1251 0.895315C27.0853 0.749412 26.9526 0.530557 26.8333 0.40455C26.7205 0.278542 26.5216 0.139271 26.4088 0.0928475C26.2894 0.0397918 26.064 0 25.9114 0C25.7523 0.00663196 25.5201 0.0663196 25.3875 0.139271ZM25.4937 0.754784C25.3677 0.880791 25.2748 1.05322 25.2682 1.1527C25.2616 1.24555 25.308 1.41798 25.3611 1.52409C25.4141 1.63683 25.56 1.76947 25.6794 1.82253C25.8386 1.88885 25.9513 1.90211 26.1436 1.85569C26.3094 1.80927 26.4354 1.72305 26.5217 1.57715C26.6211 1.41798 26.6477 1.29197 26.6278 1.12617C26.6079 0.98027 26.515 0.827735 26.389 0.714992C26.2497 0.582353 26.1171 0.529297 25.9513 0.529297C25.7656 0.529297 25.6595 0.582353 25.4937 0.754784Z" fill="#DAC7BD"/>
<path d="M2.03306 36.7683C1.5983 36.7683 1.26016 36.6385 1.01863 36.3788C0.777102 36.1132 0.656337 35.7448 0.656337 35.2738V31.7324C0.656337 31.2675 0.777102 30.9052 1.01863 30.6455C1.26016 30.3798 1.5983 30.247 2.03306 30.247C2.47989 30.247 2.82407 30.3768 3.0656 30.6365C3.30713 30.8961 3.42789 31.2614 3.42789 31.7324V32.3845H2.89351V31.7052C2.89351 31.4033 2.81501 31.1709 2.65801 31.0078C2.50706 30.8388 2.30176 30.7542 2.04211 30.7542C1.78247 30.7542 1.58019 30.8388 1.43527 31.0078C1.29035 31.1709 1.21789 31.4033 1.21789 31.7052V35.3101C1.21789 35.612 1.29035 35.8445 1.43527 36.0075C1.58019 36.1705 1.78247 36.252 2.04211 36.252C2.31383 36.252 2.52215 36.1705 2.66707 36.0075C2.81803 35.8445 2.89351 35.612 2.89351 35.3101V34.4496H3.42789V35.2738C3.42789 35.7448 3.30713 36.1132 3.0656 36.3788C2.82407 36.6385 2.47989 36.7683 2.03306 36.7683ZM7.90959 36.6777H5.45504V30.3376H6.0166V36.1615H7.90959V36.6777ZM10.3716 36.6777H9.81001V30.3376H10.3716V36.6777ZM13.0803 36.6777H12.564V30.3376H13.3067L14.9552 35.2376V30.3376H15.4805V36.6777H14.8827L13.0803 31.2705V36.6777ZM18.2235 36.6777H17.662V30.3376H18.2235V36.6777ZM21.7293 36.7683C21.2945 36.7683 20.9564 36.6385 20.7149 36.3788C20.4733 36.1132 20.3526 35.7448 20.3526 35.2738V31.7324C20.3526 31.2675 20.4733 30.9052 20.7149 30.6455C20.9564 30.3798 21.2945 30.247 21.7293 30.247C22.1761 30.247 22.5203 30.3768 22.7618 30.6365C23.0034 30.8961 23.1241 31.2614 23.1241 31.7324V32.3845H22.5897V31.7052C22.5897 31.4033 22.5112 31.1709 22.3542 31.0078C22.2033 30.8388 21.998 30.7542 21.7383 30.7542C21.4787 30.7542 21.2764 30.8388 21.1315 31.0078C20.9866 31.1709 20.9141 31.4033 20.9141 31.7052V35.3101C20.9141 35.612 20.9866 35.8445 21.1315 36.0075C21.2764 36.1705 21.4787 36.252 21.7383 36.252C22.0101 36.252 22.2184 36.1705 22.3633 36.0075C22.5143 35.8445 22.5897 35.612 22.5897 35.3101V34.4496H23.1241V35.2738C23.1241 35.7448 23.0034 36.1132 22.7618 36.3788C22.5203 36.6385 22.1761 36.7683 21.7293 36.7683ZM32.1262 36.6777H30.677V30.3376H32.0446C32.5398 30.3376 32.896 30.4523 33.1134 30.6818C33.3368 30.9112 33.4485 31.2765 33.4485 31.7777V32.0404C33.4485 32.7166 33.207 33.1423 32.7239 33.3175V33.3356C33.2734 33.4865 33.5482 33.9334 33.5482 34.6761V35.2104C33.5482 36.1886 33.0742 36.6777 32.1262 36.6777ZM31.2385 30.8448V33.1182H31.936C32.262 33.1182 32.5005 33.0427 32.6515 32.8918C32.8085 32.7348 32.887 32.4872 32.887 32.1491V31.823C32.887 31.4788 32.8206 31.2312 32.6877 31.0803C32.5549 30.9233 32.3345 30.8448 32.0265 30.8448H31.2385ZM31.2385 33.6254V36.1615H32.1262C32.4281 36.1615 32.6454 36.086 32.7783 35.935C32.9172 35.7841 32.9866 35.5395 32.9866 35.2014V34.6579C32.9866 34.2836 32.9081 34.0179 32.7511 33.8609C32.6002 33.7039 32.3375 33.6254 31.9631 33.6254H31.2385ZM37.0148 36.6777H36.4532V33.8518L35.1399 30.3376H35.7377L36.7521 33.1182L37.7756 30.3376H38.3281L37.0148 33.8518V36.6777ZM47.157 36.6777H45.744V30.3376H47.157C47.6401 30.3376 47.9963 30.4644 48.2258 30.718C48.4552 30.9656 48.5699 31.346 48.5699 31.8592V35.147C48.5699 35.6663 48.4552 36.0528 48.2258 36.3064C47.9963 36.554 47.6401 36.6777 47.157 36.6777ZM46.3056 30.8448V36.1615H47.1479C47.4498 36.1615 47.6672 36.086 47.8001 35.935C47.9389 35.778 48.0084 35.5244 48.0084 35.1742V31.8411C48.0084 31.4848 47.9389 31.2312 47.8001 31.0803C47.6612 30.9233 47.4438 30.8448 47.1479 30.8448H46.3056ZM53.6273 36.6777H53.0567L52.7849 35.2738H51.1637L50.901 36.6777H50.3666L51.6075 30.3376H52.3683L53.6273 36.6777ZM51.9698 31.0259L51.2633 34.7757H52.6944L51.9698 31.0259ZM56.1035 36.6777H55.5419V30.3376H56.8915C57.3806 30.3376 57.7368 30.4523 57.9602 30.6818C58.1837 30.9112 58.2954 31.2765 58.2954 31.7777V32.1672C58.2954 32.8857 58.0387 33.3114 57.5255 33.4443V33.4624C58.0387 33.5711 58.2954 34.0058 58.2954 34.7666V35.9169C58.2954 36.249 58.3256 36.5026 58.3859 36.6777H57.8153C57.761 36.4604 57.7338 36.2037 57.7338 35.9079V34.7395C57.7338 34.3772 57.6613 34.1236 57.5164 33.9786C57.3776 33.8277 57.136 33.7522 56.7918 33.7522H56.1035V36.6777ZM56.1035 30.8448V33.2269H56.7828C57.1088 33.2269 57.3474 33.1514 57.4983 33.0004C57.6553 32.8495 57.7338 32.6049 57.7338 32.2668V31.823C57.7338 31.4788 57.6674 31.2312 57.5345 31.0803C57.4017 30.9233 57.1813 30.8448 56.8734 30.8448H56.1035ZM60.9892 36.6777H60.4276V30.3376H60.9892V36.6777ZM66.1615 36.6777H65.5909L65.3191 35.2738H63.6979L63.4352 36.6777H62.9008L64.1417 30.3376H64.9025L66.1615 36.6777ZM64.504 31.0259L63.7975 34.7757H65.2286L64.504 31.0259ZM73.5294 35.2195V31.7958C73.5294 31.2946 73.6501 30.9112 73.8917 30.6455C74.1392 30.3798 74.4925 30.247 74.9514 30.247C75.4103 30.247 75.7605 30.3798 76.002 30.6455C76.2496 30.9112 76.3734 31.2946 76.3734 31.7958V35.2195C76.3734 35.7207 76.2496 36.1041 76.002 36.3698C75.7605 36.6355 75.4103 36.7683 74.9514 36.7683C74.4925 36.7683 74.1392 36.6355 73.8917 36.3698C73.6501 36.1041 73.5294 35.7207 73.5294 35.2195ZM75.8118 35.2557V31.7596C75.8118 31.0893 75.525 30.7542 74.9514 30.7542C74.3777 30.7542 74.0909 31.0893 74.0909 31.7596V35.2557C74.0909 35.9199 74.3777 36.252 74.9514 36.252C75.525 36.252 75.8118 35.9199 75.8118 35.2557ZM81.5306 36.6777H80.9328L79.7644 33.3537L79.0579 34.5493V36.6777H78.4963V30.3376H79.0579V33.6435L80.9237 30.3376H81.5124L80.1357 32.7378L81.5306 36.6777ZM84.5687 36.7683C84.1219 36.7683 83.7777 36.6385 83.5362 36.3788C83.3007 36.1132 83.183 35.7418 83.183 35.2648V34.9115H83.7173V35.301C83.7173 35.609 83.7898 35.8445 83.9347 36.0075C84.0857 36.1705 84.297 36.252 84.5687 36.252C84.8405 36.252 85.0488 36.1705 85.1937 36.0075C85.3446 35.8384 85.4201 35.5999 85.4201 35.292C85.4201 34.984 85.3446 34.7153 85.1937 34.4859C85.0427 34.2564 84.771 33.9817 84.3785 33.6616C83.9317 33.3054 83.6207 32.9853 83.4456 32.7016C83.2705 32.4057 83.183 32.0796 83.183 31.7234C83.183 31.2584 83.3037 30.8961 83.5452 30.6365C83.7928 30.3768 84.137 30.247 84.5778 30.247C85.0125 30.247 85.3477 30.3798 85.5832 30.6455C85.8247 30.9052 85.9454 31.2735 85.9454 31.7505V32.0041H85.4111V31.7143C85.4111 31.4003 85.3386 31.1618 85.1937 30.9988C85.0488 30.8357 84.8435 30.7542 84.5778 30.7542C84.3181 30.7542 84.1128 30.8357 83.9619 30.9988C83.817 31.1618 83.7445 31.3913 83.7445 31.6871C83.7445 31.9709 83.82 32.2245 83.9709 32.4479C84.1279 32.6834 84.4057 32.9582 84.8042 33.2722C85.245 33.6345 85.553 33.9605 85.7281 34.2504C85.8971 34.5281 85.9817 34.8632 85.9817 35.2557C85.9817 35.7388 85.8579 36.1132 85.6103 36.3788C85.3688 36.6385 85.0216 36.7683 84.5687 36.7683ZM90.5119 36.6777H87.9758V30.3376H90.5119V30.8448H88.5373V33.1182H90.1586V33.6254H88.5373V36.1615H90.5119V36.6777ZM92.962 36.6777H92.4457V30.3376H93.1884L94.8369 35.2376V30.3376H95.3622V36.6777H94.7644L92.962 31.2705V36.6777ZM98.9748 36.6777H98.4132V30.8448H97.2539V30.3376H100.143V30.8448H98.9748V36.6777ZM102.013 35.2195V30.3376H102.574V35.2557C102.574 35.9199 102.858 36.252 103.426 36.252C103.993 36.252 104.277 35.9199 104.277 35.2557V30.3376H104.821V35.2195C104.821 35.7207 104.7 36.1041 104.458 36.3698C104.223 36.6355 103.876 36.7683 103.417 36.7683C102.958 36.7683 102.608 36.6355 102.366 36.3698C102.131 36.1041 102.013 35.7207 102.013 35.2195ZM110.013 36.6777H109.415L108.247 33.3537L107.54 34.5493V36.6777H106.979V30.3376H107.54V33.6435L109.406 30.3376H109.995L108.618 32.7378L110.013 36.6777Z" fill="white"/>
</svg>
